# xmcd
#
# Track frame offsets: 
#        150
#        13449
#        27260
#        41726
#        53217
#        67904
#        82192
#        94618
#        109276
#        120960
#        132865
#        147406
#        155083
#        167622
#        175928
#        190623
#        203723
#        217873
#
# Disc length: 3056 seconds
#
# Revision: 3
# Processed by: cddbd v1.5.2PL0 Copyright (c) Steve Scherf et al.
# Submitted via: ExactAudioCopy v0.95b3
#
DISCID=f90bee12
DTITLE=Various Artist - The Rat Pack - Far Away Places
DYEAR=2004
DGENRE=Jazz
TTITLE0=Sammy Davis Jr. - One For My Baby
TTITLE1=Dean Martin - You Belong To Me
TTITLE2=Frank Sinatra - Day By Day
TTITLE3=Dean Martin - Don't Let The Stars Get In Your Eyes
TTITLE4=Frank Sinatra - Stella By Starlight
TTITLE5=Sammy Davis Jr. - Bye,Bye,Blackbird
TTITLE6=Dean Martin - Everybody Loves Somebody
TTITLE7=Frank Dinatra - That's How Much I love You
TTITLE8=Dean Martin - Far Away places
TTITLE9=Frank Sinatra - All Of Me
TTITLE10=Sammy Davis Jr. - Lonely Is The Name
TTITLE11=Dean Martin - Someone like You
TTITLE12=Frank Sinatra - Saturday Night (Is The lonliest Night Of The 
TTITLE12=Week)
TTITLE13=Dean Martin - How It Lies,How it Lies,How it lies
TTITLE14=Frank Sinatra - So far
TTITLE15=Dean Martin - I Got the Sun In The Morning
TTITLE16=Frank Sinatra - They Say It's Wonderful
TTITLE17=Dean Martin - Oh Marie
EXTD=
EXTT0=
EXTT1=
EXTT2=
EXTT3=
EXTT4=
EXTT5=
EXTT6=
EXTT7=
EXTT8=
EXTT9=
EXTT10=
EXTT11=
EXTT12=
EXTT13=
EXTT14=
EXTT15=
EXTT16=
EXTT17=
PLAYORDER=
